<?xml version="1.0" standalone="no"?>
<!DOCTYPE svg PUBLIC "-//W3C//DTD SVG 20010904//EN"
 "http://www.w3.org/TR/2001/REC-SVG-20010904/DTD/svg10.dtd">
<svg version="1.0" xmlns="http://www.w3.org/2000/svg"
 width="700.000000pt" height="700.000000pt" viewBox="0 0 700.000000 700.000000"
 preserveAspectRatio="xMidYMid meet">
<metadata>
Created by potrace 1.14, written by Peter Selinger 2001-2017
</metadata>
<g transform="translate(0.000000,700.000000) scale(0.100000,-0.100000)"
fill="#000000" stroke="none">
<path d="M669 6996 c-2 -2 -21 -7 -42 -10 -235 -37 -475 -236 -572 -473 -23
-58 -27 -73 -43 -153 -4 -19 -7 -408 -7 -865 l0 -829 375 -1 c206 0 380 1 386
3 8 2 11 216 11 773 0 423 3 772 6 776 4 3 353 5 777 5 423 0 770 3 771 7 0 3
2 178 2 389 l2 382 -831 0 c-457 0 -833 -2 -835 -4z"/>
<path d="M4666 6623 c1 -208 2 -383 3 -389 1 -9 205 -12 771 -12 424 0 774 -2
777 -5 3 -4 5 -352 5 -776 l1 -769 21 -4 c11 -2 185 -3 386 -3 l365 1 0 824
c0 454 -3 849 -8 878 -4 29 -22 90 -40 135 -100 251 -335 445 -587 485 -40 7
-372 11 -880 11 l-815 1 1 -377z"/>
<path d="M3378 5325 c-2 -2 -41 -6 -88 -9 -47 -4 -113 -14 -148 -21 -34 -8
-77 -17 -95 -20 -72 -13 -277 -89 -387 -144 -417 -208 -727 -542 -898 -968
-60 -149 -81 -230 -118 -438 -4 -22 -9 -373 -10 -780 -4 -626 -2 -751 11 -810
40 -188 185 -356 367 -423 249 -93 584 -3 804 215 69 69 84 88 129 157 61 95
109 214 130 321 3 17 8 41 10 55 8 36 7 186 -1 250 -27 227 -163 466 -344 605
-110 85 -277 159 -389 172 -124 15 -126 15 -125 53 1 39 11 146 20 200 9 61
54 198 89 276 55 120 142 241 255 354 184 185 379 292 630 346 100 22 427 26
495 6 22 -6 56 -14 75 -17 61 -10 212 -66 280 -103 281 -153 498 -397 600
-677 31 -83 58 -205 65 -290 4 -44 8 -90 10 -102 5 -29 3 -30 -75 -38 -396
-43 -719 -359 -782 -766 -37 -234 15 -464 149 -666 52 -79 165 -190 248 -245
73 -47 226 -113 286 -123 19 -3 57 -9 85 -14 105 -16 212 -4 314 36 156 61
284 198 338 361 l25 77 1 720 c0 396 -3 754 -6 795 -42 463 -286 920 -657
1228 -262 218 -602 367 -941 412 -73 10 -345 21 -352 15z"/>
<path d="M16 2332 c-16 -3 -17 -56 -13 -845 2 -463 7 -858 11 -877 49 -220
226 -440 433 -536 153 -72 96 -68 1032 -72 524 -2 847 1 850 7 5 7 6 732 2
762 -1 4 -348 7 -771 7 -424 -1 -773 2 -777 5 -3 4 -6 353 -6 777 0 704 -1
770 -16 771 -50 3 -730 3 -745 1z"/>
<path d="M6244 2332 l-22 -3 0 -770 c0 -423 -2 -773 -6 -776 -3 -3 -352 -6
-775 -6 l-769 0 -4 -26 c-1 -14 -3 -188 -2 -386 l0 -360 845 0 c786 0 848 1
909 18 278 78 503 313 560 583 17 82 18 151 19 907 1 773 0 817 -16 818 -49 3
-721 4 -739 1z"/>
</g>
</svg>
