<svg width="45" height="56" viewBox="0 0 45 56" fill="none" xmlns="http://www.w3.org/2000/svg">
<g clip-path="url(#clip0_936_13447)">
<path d="M17.8441 22.2901L16.1679 24.3479C15.4086 24.3479 14.7674 24.0891 14.2445 23.5715C13.7216 23.054 13.4601 22.4195 13.4601 21.668V16.0319C13.4601 14.8835 13.6822 13.7988 14.1263 12.7779C14.5705 11.757 15.1758 10.8673 15.9422 10.1087C16.7087 9.35015 17.6077 8.75107 18.6392 8.31154C19.6708 7.872 20.7667 7.65222 21.9272 7.65222C23.0877 7.65222 24.1837 7.872 25.2152 8.31154C26.2467 8.75107 27.1457 9.35015 27.9122 10.1087C28.6786 10.8673 29.2839 11.757 29.728 12.7779C30.1723 13.7988 30.3942 14.8835 30.3942 16.0319V21.668C30.3942 22.4195 30.1329 23.054 29.61 23.5715C29.087 24.0891 28.4458 24.3479 27.6865 24.3479L26.2229 22.2901V17.8043L27.6865 16.2234V16.0319C27.6865 14.4439 27.1278 13.0969 26.0103 11.991C24.8928 10.885 23.5318 10.332 21.9272 10.332C20.3226 10.332 18.9616 10.885 17.8441 11.991C16.7266 13.0969 16.1679 14.4439 16.1679 16.0319V16.2234L17.8441 17.8043V22.2901Z" fill="#E6E1E5"/>
<path d="M16.0837 24.3479C16.6162 24.3479 17.1435 24.2398 17.6354 24.0302C18.1273 23.8203 18.5743 23.5129 18.9508 23.1253C19.3273 22.7377 19.626 22.2776 19.8298 21.7712C20.0335 21.2648 20.1384 20.722 20.1384 20.1739C20.1384 19.6258 20.0335 19.083 19.8298 18.5766C19.626 18.0702 19.3273 17.6101 18.9508 17.2225C18.5743 16.8349 18.1273 16.5275 17.6354 16.3177C17.1435 16.1079 16.6162 16 16.0837 16V20.1739V24.3479Z" fill="#E6E1E5"/>
<path d="M27.7707 16C27.2382 16 26.711 16.108 26.2191 16.3177C25.7271 16.5275 25.2801 16.8349 24.9036 17.2225C24.5271 17.6101 24.2285 18.0702 24.0247 18.5766C23.8209 19.083 23.7161 19.6258 23.7161 20.1739C23.7161 20.722 23.8209 21.2648 24.0247 21.7712C24.2285 22.2776 24.5271 22.7377 24.9036 23.1253C25.2801 23.5128 25.7271 23.8203 26.2191 24.0301C26.711 24.2398 27.2382 24.3478 27.7707 24.3478V20.1739V16Z" fill="#E6E1E5"/>
<path d="M9.55556 32C8.57778 32 7.74074 31.6519 7.04444 30.9556C6.34815 30.2593 6 29.4222 6 28.4444V21.3333H9.55556V28.4444H16.6667V32H9.55556ZM27.3333 32V28.4444H34.4444V21.3333H38V28.4444C38 29.4222 37.6519 30.2593 36.9556 30.9556C36.2593 31.6519 35.4222 32 34.4444 32H27.3333ZM6 10.6667V3.55556C6 2.57778 6.34815 1.74074 7.04444 1.04444C7.74074 0.348148 8.57778 0 9.55556 0H16.6667V3.55556H9.55556V10.6667H6ZM34.4444 10.6667V3.55556H27.3333V0H34.4444C35.4222 0 36.2593 0.348148 36.9556 1.04444C37.6519 1.74074 38 2.57778 38 3.55556V10.6667H34.4444Z" fill="#E6E1E5"/>
</g>
<path d="M1.806 54V45.824C1.806 45.404 1.89933 45.0307 2.086 44.704C2.27267 44.3773 2.52933 44.1207 2.856 43.934C3.18267 43.7473 3.56067 43.654 3.99 43.654C4.28867 43.654 4.56867 43.71 4.83 43.822C5.09133 43.934 5.30133 44.0833 5.46 44.27L4.97 45.376C4.84867 45.264 4.71333 45.1753 4.564 45.11C4.424 45.0353 4.28867 44.998 4.158 44.998C3.962 44.998 3.794 45.0307 3.654 45.096C3.52333 45.152 3.42533 45.2453 3.36 45.376C3.29467 45.4973 3.262 45.6467 3.262 45.824V54H2.534C2.41267 54 2.29133 54 2.17 54C2.04867 54 1.92733 54 1.806 54ZM0.63 48.106V46.776H4.998V48.106H0.63ZM10.5347 54.14C9.81599 54.14 9.17199 53.9767 8.60266 53.65C8.04266 53.314 7.59932 52.8613 7.27266 52.292C6.94599 51.7133 6.78266 51.0553 6.78266 50.318C6.78266 49.5807 6.94599 48.9273 7.27266 48.358C7.59932 47.7793 8.04266 47.3267 8.60266 47C9.17199 46.664 9.81599 46.496 10.5347 46.496C11.244 46.496 11.8787 46.664 12.4387 47C13.008 47.3267 13.456 47.7793 13.7827 48.358C14.1093 48.9273 14.2727 49.5807 14.2727 50.318C14.2727 51.0553 14.1093 51.7133 13.7827 52.292C13.456 52.8613 13.008 53.314 12.4387 53.65C11.8787 53.9767 11.244 54.14 10.5347 54.14ZM10.5347 52.824C10.9733 52.824 11.3653 52.7167 11.7107 52.502C12.056 52.278 12.3267 51.9793 12.5227 51.606C12.7187 51.2233 12.812 50.794 12.8027 50.318C12.812 49.8327 12.7187 49.4033 12.5227 49.03C12.3267 48.6473 12.056 48.3487 11.7107 48.134C11.3653 47.9193 10.9733 47.812 10.5347 47.812C10.096 47.812 9.69932 47.924 9.34466 48.148C8.99932 48.3627 8.72866 48.6613 8.53266 49.044C8.33666 49.4173 8.24332 49.842 8.25266 50.318C8.24332 50.794 8.33666 51.2233 8.53266 51.606C8.72866 51.9793 8.99932 52.278 9.34466 52.502C9.69932 52.7167 10.096 52.824 10.5347 52.824ZM19.9659 54.14C19.2846 54.14 18.6733 53.972 18.1319 53.636C17.5999 53.3 17.1753 52.8427 16.8579 52.264C16.5499 51.6853 16.3959 51.0367 16.3959 50.318C16.3959 49.5993 16.5499 48.9507 16.8579 48.372C17.1753 47.7933 17.5999 47.336 18.1319 47C18.6733 46.664 19.2846 46.496 19.9659 46.496C20.6193 46.496 21.2119 46.6313 21.7439 46.902C22.2853 47.1633 22.6959 47.5227 22.9759 47.98L22.1779 48.96C22.0286 48.7453 21.8373 48.5493 21.6039 48.372C21.3706 48.1947 21.1233 48.0547 20.8619 47.952C20.6006 47.8493 20.3486 47.798 20.1059 47.798C19.6579 47.798 19.2566 47.91 18.9019 48.134C18.5566 48.3487 18.2813 48.6473 18.0759 49.03C17.8706 49.4127 17.7679 49.842 17.7679 50.318C17.7679 50.794 17.8753 51.2233 18.0899 51.606C18.3046 51.9793 18.5893 52.278 18.9439 52.502C19.2986 52.726 19.6906 52.838 20.1199 52.838C20.3719 52.838 20.6146 52.796 20.8479 52.712C21.0906 52.628 21.3239 52.502 21.5479 52.334C21.7719 52.166 21.9819 51.9607 22.1779 51.718L22.9759 52.698C22.6773 53.118 22.2479 53.4633 21.6879 53.734C21.1373 54.0047 20.5633 54.14 19.9659 54.14ZM27.9121 54.14C27.3895 54.14 26.9321 54.0187 26.5401 53.776C26.1575 53.5333 25.8588 53.1927 25.6441 52.754C25.4388 52.3153 25.3361 51.7927 25.3361 51.186V46.65H26.7781V50.794C26.7781 51.2233 26.8435 51.5967 26.9741 51.914C27.1141 52.222 27.3101 52.46 27.5621 52.628C27.8235 52.796 28.1361 52.88 28.5001 52.88C28.7708 52.88 29.0181 52.838 29.2421 52.754C29.4661 52.6607 29.6575 52.5347 29.8161 52.376C29.9841 52.2173 30.1148 52.026 30.2081 51.802C30.3015 51.578 30.3481 51.3353 30.3481 51.074V46.65H31.7901V54H30.3481V52.46L30.6001 52.292C30.4881 52.6373 30.2968 52.95 30.0261 53.23C29.7648 53.51 29.4521 53.734 29.0881 53.902C28.7241 54.0607 28.3321 54.14 27.9121 54.14ZM37.2627 54.14C36.6467 54.14 36.0914 54.0327 35.5967 53.818C35.102 53.6033 34.6914 53.286 34.3647 52.866L35.3447 52.026C35.6247 52.3527 35.928 52.5907 36.2547 52.74C36.5907 52.88 36.9687 52.95 37.3887 52.95C37.5567 52.95 37.7107 52.9313 37.8507 52.894C38 52.8473 38.126 52.782 38.2287 52.698C38.3407 52.614 38.4247 52.516 38.4807 52.404C38.5367 52.2827 38.5647 52.152 38.5647 52.012C38.5647 51.7693 38.476 51.5733 38.2987 51.424C38.2054 51.3587 38.056 51.2887 37.8507 51.214C37.6547 51.13 37.398 51.046 37.0807 50.962C36.5394 50.822 36.096 50.6633 35.7507 50.486C35.4054 50.3087 35.1394 50.108 34.9527 49.884C34.8127 49.7067 34.71 49.5153 34.6447 49.31C34.5794 49.0953 34.5467 48.862 34.5467 48.61C34.5467 48.302 34.612 48.022 34.7427 47.77C34.8827 47.5087 35.0694 47.2847 35.3027 47.098C35.5454 46.902 35.8254 46.7527 36.1427 46.65C36.4694 46.5473 36.8147 46.496 37.1787 46.496C37.524 46.496 37.8647 46.5427 38.2007 46.636C38.546 46.7293 38.8634 46.8647 39.1527 47.042C39.442 47.2193 39.6847 47.4293 39.8807 47.672L39.0547 48.582C38.8774 48.4047 38.6814 48.2507 38.4667 48.12C38.2614 47.98 38.0514 47.8727 37.8367 47.798C37.622 47.7233 37.426 47.686 37.2487 47.686C37.0527 47.686 36.8754 47.7047 36.7167 47.742C36.558 47.7793 36.4227 47.8353 36.3107 47.91C36.208 47.9847 36.1287 48.078 36.0727 48.19C36.0167 48.302 35.9887 48.428 35.9887 48.568C35.998 48.6893 36.026 48.806 36.0727 48.918C36.1287 49.0207 36.2034 49.1093 36.2967 49.184C36.3994 49.2587 36.5534 49.338 36.7587 49.422C36.964 49.506 37.2254 49.5853 37.5427 49.66C38.0094 49.7813 38.392 49.9167 38.6907 50.066C38.9987 50.206 39.2414 50.3693 39.4187 50.556C39.6054 50.7333 39.736 50.9387 39.8107 51.172C39.8854 51.4053 39.9227 51.6667 39.9227 51.956C39.9227 52.376 39.8014 52.754 39.5587 53.09C39.3254 53.4167 39.008 53.6733 38.6067 53.86C38.2054 54.0467 37.7574 54.14 37.2627 54.14ZM43.0999 54.154C42.7919 54.154 42.5539 54.0653 42.3859 53.888C42.2179 53.7013 42.1339 53.44 42.1339 53.104C42.1339 52.796 42.2226 52.544 42.3999 52.348C42.5772 52.152 42.8106 52.054 43.0999 52.054C43.4079 52.054 43.6459 52.1473 43.8139 52.334C43.9819 52.5113 44.0659 52.768 44.0659 53.104C44.0659 53.412 43.9772 53.664 43.7999 53.86C43.6226 54.056 43.3892 54.154 43.0999 54.154Z" fill="#E6E1E5"/>
<defs>
<clipPath id="clip0_936_13447">
<rect width="32" height="32" fill="white" transform="translate(6)"/>
</clipPath>
</defs>
</svg>
