<svg width="87" height="32" viewBox="0 0 87 32" fill="none" xmlns="http://www.w3.org/2000/svg">
<g clip-path="url(#clip0_936_13451)">
<path d="M11.8441 22.2901L10.1679 24.3479C9.40857 24.3479 8.76744 24.0891 8.24451 23.5715C7.72159 23.054 7.46014 22.4195 7.46014 21.668V16.0319C7.46014 14.8835 7.6822 13.7988 8.12632 12.7779C8.57045 11.757 9.17576 10.8673 9.94223 10.1087C10.7087 9.35015 11.6077 8.75107 12.6392 8.31154C13.6708 7.872 14.7667 7.65222 15.9272 7.65222C17.0877 7.65222 18.1837 7.872 19.2152 8.31154C20.2467 8.75107 21.1457 9.35015 21.9122 10.1087C22.6786 10.8673 23.2839 11.757 23.728 12.7779C24.1723 13.7988 24.3942 14.8835 24.3942 16.0319V21.668C24.3942 22.4195 24.1329 23.054 23.61 23.5715C23.087 24.0891 22.4458 24.3479 21.6865 24.3479L20.2229 22.2901V17.8043L21.6865 16.2234V16.0319C21.6865 14.4439 21.1278 13.0969 20.0103 11.991C18.8928 10.885 17.5318 10.332 15.9272 10.332C14.3226 10.332 12.9616 10.885 11.8441 11.991C10.7266 13.0969 10.1679 14.4439 10.1679 16.0319V16.2234L11.8441 17.8043V22.2901Z" fill="#1C1B1F"/>
<path d="M10.0837 24.3479C10.6162 24.3479 11.1435 24.2398 11.6354 24.0302C12.1273 23.8203 12.5743 23.5129 12.9508 23.1253C13.3273 22.7377 13.626 22.2776 13.8298 21.7712C14.0335 21.2648 14.1384 20.722 14.1384 20.1739C14.1384 19.6258 14.0335 19.083 13.8298 18.5766C13.626 18.0702 13.3273 17.6101 12.9508 17.2225C12.5743 16.8349 12.1273 16.5275 11.6354 16.3177C11.1435 16.1079 10.6162 16 10.0837 16V20.1739V24.3479Z" fill="#1C1B1F"/>
<path d="M21.7707 16C21.2382 16 20.711 16.108 20.2191 16.3177C19.7271 16.5275 19.2801 16.8349 18.9036 17.2225C18.5271 17.6101 18.2285 18.0702 18.0247 18.5766C17.8209 19.083 17.7161 19.6258 17.7161 20.1739C17.7161 20.722 17.8209 21.2648 18.0247 21.7712C18.2285 22.2776 18.5271 22.7377 18.9036 23.1253C19.2801 23.5128 19.7271 23.8203 20.2191 24.0301C20.711 24.2398 21.2382 24.3478 21.7707 24.3478V20.1739V16Z" fill="#1C1B1F"/>
<path d="M3.55556 0C2.57778 0 1.74074 0.348146 1.04444 1.04444C0.348148 1.74074 0 2.57778 0 3.55556V10.6667H3.55556V3.55556H10.6667V0H3.55556ZM21.3333 0V3.55556H28.4444V10.6667H32V3.55556C32 2.57778 31.6519 1.74074 30.9556 1.04444C30.2593 0.348146 29.4222 0 28.4444 0H21.3333ZM0 21.3333V28.4444C0 29.4222 0.348148 30.2593 1.04444 30.9556C1.74074 31.6519 2.57778 32 3.55556 32H10.6667V28.4444H3.55556V21.3333H0ZM28.4444 21.3333V28.4444H21.3333V32H28.4444C29.4222 32 30.2593 31.6519 30.9556 30.9556C31.6519 30.2593 32 29.4222 32 28.4444V21.3333H28.4444Z" fill="#1C1B1F"/>
</g>
<path d="M43.806 21V12.824C43.806 12.404 43.8993 12.0307 44.086 11.704C44.2727 11.3773 44.5293 11.1207 44.856 10.934C45.1827 10.7473 45.5607 10.654 45.99 10.654C46.2887 10.654 46.5687 10.71 46.83 10.822C47.0913 10.934 47.3013 11.0833 47.46 11.27L46.97 12.376C46.8487 12.264 46.7133 12.1753 46.564 12.11C46.424 12.0353 46.2887 11.998 46.158 11.998C45.962 11.998 45.794 12.0307 45.654 12.096C45.5233 12.152 45.4253 12.2453 45.36 12.376C45.2947 12.4973 45.262 12.6467 45.262 12.824V21H44.534C44.4127 21 44.2913 21 44.17 21C44.0487 21 43.9273 21 43.806 21ZM42.63 15.106V13.776H46.998V15.106H42.63ZM52.5347 21.14C51.816 21.14 51.172 20.9767 50.6027 20.65C50.0427 20.314 49.5993 19.8613 49.2727 19.292C48.946 18.7133 48.7827 18.0553 48.7827 17.318C48.7827 16.5807 48.946 15.9273 49.2727 15.358C49.5993 14.7793 50.0427 14.3267 50.6027 14C51.172 13.664 51.816 13.496 52.5347 13.496C53.244 13.496 53.8787 13.664 54.4387 14C55.008 14.3267 55.456 14.7793 55.7827 15.358C56.1093 15.9273 56.2727 16.5807 56.2727 17.318C56.2727 18.0553 56.1093 18.7133 55.7827 19.292C55.456 19.8613 55.008 20.314 54.4387 20.65C53.8787 20.9767 53.244 21.14 52.5347 21.14ZM52.5347 19.824C52.9733 19.824 53.3653 19.7167 53.7107 19.502C54.056 19.278 54.3267 18.9793 54.5227 18.606C54.7187 18.2233 54.812 17.794 54.8027 17.318C54.812 16.8327 54.7187 16.4033 54.5227 16.03C54.3267 15.6473 54.056 15.3487 53.7107 15.134C53.3653 14.9193 52.9733 14.812 52.5347 14.812C52.096 14.812 51.6993 14.924 51.3447 15.148C50.9993 15.3627 50.7287 15.6613 50.5327 16.044C50.3367 16.4173 50.2433 16.842 50.2527 17.318C50.2433 17.794 50.3367 18.2233 50.5327 18.606C50.7287 18.9793 50.9993 19.278 51.3447 19.502C51.6993 19.7167 52.096 19.824 52.5347 19.824ZM61.9659 21.14C61.2846 21.14 60.6733 20.972 60.1319 20.636C59.5999 20.3 59.1753 19.8427 58.8579 19.264C58.5499 18.6853 58.3959 18.0367 58.3959 17.318C58.3959 16.5993 58.5499 15.9507 58.8579 15.372C59.1753 14.7933 59.5999 14.336 60.1319 14C60.6733 13.664 61.2846 13.496 61.9659 13.496C62.6193 13.496 63.2119 13.6313 63.7439 13.902C64.2853 14.1633 64.6959 14.5227 64.9759 14.98L64.1779 15.96C64.0286 15.7453 63.8373 15.5493 63.6039 15.372C63.3706 15.1947 63.1233 15.0547 62.8619 14.952C62.6006 14.8493 62.3486 14.798 62.1059 14.798C61.6579 14.798 61.2566 14.91 60.9019 15.134C60.5566 15.3487 60.2813 15.6473 60.0759 16.03C59.8706 16.4127 59.7679 16.842 59.7679 17.318C59.7679 17.794 59.8753 18.2233 60.0899 18.606C60.3046 18.9793 60.5893 19.278 60.9439 19.502C61.2986 19.726 61.6906 19.838 62.1199 19.838C62.3719 19.838 62.6146 19.796 62.8479 19.712C63.0906 19.628 63.3239 19.502 63.5479 19.334C63.7719 19.166 63.9819 18.9607 64.1779 18.718L64.9759 19.698C64.6773 20.118 64.2479 20.4633 63.6879 20.734C63.1373 21.0047 62.5633 21.14 61.9659 21.14ZM69.9121 21.14C69.3895 21.14 68.9321 21.0187 68.5401 20.776C68.1575 20.5333 67.8588 20.1927 67.6441 19.754C67.4388 19.3153 67.3361 18.7927 67.3361 18.186V13.65H68.7781V17.794C68.7781 18.2233 68.8435 18.5967 68.9741 18.914C69.1141 19.222 69.3101 19.46 69.5621 19.628C69.8235 19.796 70.1361 19.88 70.5001 19.88C70.7708 19.88 71.0181 19.838 71.2421 19.754C71.4661 19.6607 71.6575 19.5347 71.8161 19.376C71.9841 19.2173 72.1148 19.026 72.2081 18.802C72.3015 18.578 72.3481 18.3353 72.3481 18.074V13.65H73.7901V21H72.3481V19.46L72.6001 19.292C72.4881 19.6373 72.2968 19.95 72.0261 20.23C71.7648 20.51 71.4521 20.734 71.0881 20.902C70.7241 21.0607 70.3321 21.14 69.9121 21.14ZM79.2627 21.14C78.6467 21.14 78.0914 21.0327 77.5967 20.818C77.102 20.6033 76.6914 20.286 76.3647 19.866L77.3447 19.026C77.6247 19.3527 77.928 19.5907 78.2547 19.74C78.5907 19.88 78.9687 19.95 79.3887 19.95C79.5567 19.95 79.7107 19.9313 79.8507 19.894C80 19.8473 80.126 19.782 80.2287 19.698C80.3407 19.614 80.4247 19.516 80.4807 19.404C80.5367 19.2827 80.5647 19.152 80.5647 19.012C80.5647 18.7693 80.476 18.5733 80.2987 18.424C80.2054 18.3587 80.056 18.2887 79.8507 18.214C79.6547 18.13 79.398 18.046 79.0807 17.962C78.5394 17.822 78.096 17.6633 77.7507 17.486C77.4054 17.3087 77.1394 17.108 76.9527 16.884C76.8127 16.7067 76.71 16.5153 76.6447 16.31C76.5794 16.0953 76.5467 15.862 76.5467 15.61C76.5467 15.302 76.612 15.022 76.7427 14.77C76.8827 14.5087 77.0694 14.2847 77.3027 14.098C77.5454 13.902 77.8254 13.7527 78.1427 13.65C78.4694 13.5473 78.8147 13.496 79.1787 13.496C79.524 13.496 79.8647 13.5427 80.2007 13.636C80.546 13.7293 80.8634 13.8647 81.1527 14.042C81.442 14.2193 81.6847 14.4293 81.8807 14.672L81.0547 15.582C80.8774 15.4047 80.6814 15.2507 80.4667 15.12C80.2614 14.98 80.0514 14.8727 79.8367 14.798C79.622 14.7233 79.426 14.686 79.2487 14.686C79.0527 14.686 78.8754 14.7047 78.7167 14.742C78.558 14.7793 78.4227 14.8353 78.3107 14.91C78.208 14.9847 78.1287 15.078 78.0727 15.19C78.0167 15.302 77.9887 15.428 77.9887 15.568C77.998 15.6893 78.026 15.806 78.0727 15.918C78.1287 16.0207 78.2034 16.1093 78.2967 16.184C78.3994 16.2587 78.5534 16.338 78.7587 16.422C78.964 16.506 79.2254 16.5853 79.5427 16.66C80.0094 16.7813 80.392 16.9167 80.6907 17.066C80.9987 17.206 81.2414 17.3693 81.4187 17.556C81.6054 17.7333 81.736 17.9387 81.8107 18.172C81.8854 18.4053 81.9227 18.6667 81.9227 18.956C81.9227 19.376 81.8014 19.754 81.5587 20.09C81.3254 20.4167 81.008 20.6733 80.6067 20.86C80.2054 21.0467 79.7574 21.14 79.2627 21.14ZM85.0999 21.154C84.7919 21.154 84.5539 21.0653 84.3859 20.888C84.2179 20.7013 84.1339 20.44 84.1339 20.104C84.1339 19.796 84.2226 19.544 84.3999 19.348C84.5772 19.152 84.8106 19.054 85.0999 19.054C85.4079 19.054 85.6459 19.1473 85.8139 19.334C85.9819 19.5113 86.0659 19.768 86.0659 20.104C86.0659 20.412 85.9772 20.664 85.7999 20.86C85.6226 21.056 85.3892 21.154 85.0999 21.154Z" fill="#1C1B1F"/>
<defs>
<clipPath id="clip0_936_13451">
<rect width="32" height="32" fill="white"/>
</clipPath>
</defs>
</svg>
